<svg xmlns="http://www.w3.org/2000/svg" viewBox="0 0 103 106"><defs><style>.cls-1,.cls-3{fill:#7fa800;}.cls-2{fill:none;stroke:#7fa800;stroke-linecap:round;stroke-width:6px;}.cls-3{fill-rule:evenodd;}</style></defs><g id="Layer_2" data-name="Layer 2"><g id="Layer_1-2" data-name="Layer 1"><path class="cls-1" d="M85.67,95.62a4.32,4.32,0,0,0,6,.63l5.94-4.72a1.15,1.15,0,0,0,.18-1.65l-7.37-9a1.2,1.2,0,0,0-1.67-.17l-5.94,4.73a4.16,4.16,0,0,0-.64,5.92Z"/><path class="cls-1" d="M97.92,90l4.7-3.74a1,1,0,0,0,.15-1.4h0a1,1,0,0,0-1.41-.15l-4.71,3.74Z"/><path class="cls-1" d="M91.59,82.29l4.7-3.75a1,1,0,0,0,.16-1.39h0A1,1,0,0,0,95,77l-4.71,3.74Z"/><path class="cls-2" d="M93.24,21.6a51.26,51.26,0,0,0-71.36-7.51A49.49,49.49,0,0,0,14.26,84.4a51.26,51.26,0,0,0,71.36,7.51"/><path class="cls-3" d="M83.32,27.44a2.37,2.37,0,0,0-2.38-2.35h-58a2.36,2.36,0,0,0-2.38,2.35v2.38a2.36,2.36,0,0,0,2.38,2.35H45.51a2.33,2.33,0,0,1,1.68,4l-26,25.59a2.36,2.36,0,0,0-.7,1.66v3.76a2.36,2.36,0,0,0,2.38,2.34H49.55a2.36,2.36,0,0,0,2.37-2.34V64.78a2.36,2.36,0,0,0-2.37-2.34H36.41a2.34,2.34,0,0,1-1.68-4L61.35,32.22a.19.19,0,0,1,.13,0H80.94a2.37,2.37,0,0,0,2.38-2.35Z"/><path class="cls-1" d="M63.71,43.89H80.93a2.36,2.36,0,0,1,2.38,2.34v2.39A2.36,2.36,0,0,1,80.93,51H63.71a2.36,2.36,0,0,1-2.38-2.34V46.23A2.36,2.36,0,0,1,63.71,43.89Z"/><path class="cls-3" d="M67.32,76.63a0,0,0,0,1,0,0h0s0,0,0,0L70.7,80a2.41,2.41,0,0,0,3.36,0l27.43-27a2.33,2.33,0,0,0,0-3.31L99.77,48a2.41,2.41,0,0,0-3.36,0L74.09,70a2.39,2.39,0,0,1-3.36,0l-7.11-7a2.41,2.41,0,0,0-3.36,0l-1.71,1.69a2.31,2.31,0,0,0,0,3.31Z"/></g></g></svg>